<?xml version="1.0" encoding="utf-8"?>
<!-- Generator: Adobe Illustrator 16.0.4, SVG Export Plug-In . SVG Version: 6.00 Build 0)  -->
<!DOCTYPE svg PUBLIC "-//W3C//DTD SVG 1.1//EN" "http://www.w3.org/Graphics/SVG/1.1/DTD/svg11.dtd">
<svg version="1.1" id="Layer_1" xmlns="http://www.w3.org/2000/svg" xmlns:xlink="http://www.w3.org/1999/xlink" x="0px" y="0px"
	 width="100px" height="100px" viewBox="0 0 100 100" enable-background="new 0 0 100 100" xml:space="preserve">
<g id="Layer_1_1_">
	<rect x="1.592" y="68.41" fill="#FFFFFF" stroke="#000000" stroke-miterlimit="10" width="47.473" height="30.029"/>
</g>
<g id="Layer_2">
	<rect x="1.592" y="68.41" stroke="#000000" stroke-miterlimit="10" width="21.439" height="15.773"/>
	<rect x="23.644" y="68.41" stroke="#000000" stroke-miterlimit="10" width="25.421" height="3.675"/>
	<rect x="23.644" y="76.909" stroke="#000000" stroke-miterlimit="10" width="25.421" height="3.448"/>
	<rect x="1.592" y="84.796" stroke="#000000" stroke-miterlimit="10" width="47.473" height="3.038"/>
	<rect x="1.592" y="91.993" stroke="#000000" stroke-miterlimit="10" width="47.473" height="3.021"/>
	<rect x="4.5" y="71.264" fill="#FFFFFF" stroke="#000000" stroke-miterlimit="10" width="2.524" height="2.411"/>
	<rect x="11.05" y="71.264" fill="#FFFFFF" stroke="#000000" stroke-miterlimit="10" width="2.524" height="2.411"/>
	<rect x="17.996" y="71.264" fill="#FFFFFF" stroke="#000000" stroke-miterlimit="10" width="2.524" height="2.411"/>
	<rect x="4.302" y="79.152" fill="#FFFFFF" stroke="#000000" stroke-miterlimit="10" width="2.524" height="2.412"/>
	<rect x="10.852" y="79.152" fill="#FFFFFF" stroke="#000000" stroke-miterlimit="10" width="2.524" height="2.412"/>
	<rect x="17.799" y="79.152" fill="#FFFFFF" stroke="#000000" stroke-miterlimit="10" width="2.523" height="2.412"/>
	<rect x="7.577" y="75.09" fill="#FFFFFF" stroke="#000000" stroke-miterlimit="10" width="2.524" height="2.412"/>
	<rect x="14.126" y="75.09" fill="#FFFFFF" stroke="#000000" stroke-miterlimit="10" width="2.523" height="2.412"/>
	<rect x="7.577" y="83.59" fill="#FFFFFF" stroke="#000000" stroke-miterlimit="10" width="2.524" height="2.412"/>
	<rect x="14.126" y="83.59" fill="#FFFFFF" stroke="#000000" stroke-miterlimit="10" width="2.523" height="2.412"/>
</g>
</svg>
