<?xml version="1.0" encoding="utf-8"?>
<!-- Generator: Adobe Illustrator 16.0.4, SVG Export Plug-In . SVG Version: 6.00 Build 0)  -->
<!DOCTYPE svg PUBLIC "-//W3C//DTD SVG 1.1//EN" "http://www.w3.org/Graphics/SVG/1.1/DTD/svg11.dtd">
<svg version="1.1" id="Layer_1" xmlns="http://www.w3.org/2000/svg" xmlns:xlink="http://www.w3.org/1999/xlink" x="0px" y="0px"
	 width="100px" height="100px" viewBox="0 0 100 100" enable-background="new 0 0 100 100" xml:space="preserve">
<g id="Layer_1_1_">
	<path d="M7.167,49.042l2.375-3.125c0,0,0.75,2.375,1.875,3.125s2-3.125,2-3.125l2.75,1.611c0,0,0.5-2.236,1.625-2.736
		s5.875-2.25,7-1.625s0.75,2.713,4,2.919s2.625,0.331,2.625,0.706s-1.75,0.25-1.125,1.375s2.125,4,2.125,4s-6-0.625-6.375,1.5
		s-1.375,5.625,5,10c0,0,2,4.75,3,6.875s5.125,3.5,7.75,3.125c0,0,1.125-0.25,1.125,1s-1.25,1.5-0.625,1.375
		s10.163,3.125,11.375,6.375v3.75c0,0-3.5-5.875-7.25-5.125c0,0-3.25,1.5-0.875,4.5s1.875,0.625,2.375,3s-0.75,2.875-1.125,3.25
		s-1.625,1.5-1.125,2.75s-1.375,1.375-1.375,2.625s-4.25,2.5-3-1.25s3.25-4.25,2-5.875s-1.375-5.375-3.5-5.25
		s-3.625-5.875-5.625-3.125c0,0-2.25-5.25-3.75-4.25s-12.125-5.5-14.875-15.875c0,0-4.125-7.75-10.625,1c0,0-3.875,0.75-2.75-4.25
		s2.462-2.375,0.375-3.375s0.375-2.5,0.375-2.5s-1-1.75-0.125-2.625S7.167,49.042,7.167,49.042z"/>
</g>
<g id="Layer_2">
</g>
</svg>
