<?xml version="1.0" encoding="utf-8"?>
<!-- Generator: Adobe Illustrator 16.0.4, SVG Export Plug-In . SVG Version: 6.00 Build 0)  -->
<!DOCTYPE svg PUBLIC "-//W3C//DTD SVG 1.1//EN" "http://www.w3.org/Graphics/SVG/1.1/DTD/svg11.dtd">
<svg version="1.1" id="Layer_1" xmlns="http://www.w3.org/2000/svg" xmlns:xlink="http://www.w3.org/1999/xlink" x="0px" y="0px"
	 width="100px" height="75px" viewBox="0 0 100 75" enable-background="new 0 0 100 75" xml:space="preserve">
<path fill="#010101" d="M33.534,26.769c0,0-29.812-0.486-31.752,22.541h31.752"/>
<path fill="#010101" d="M34.072,53.429H2.32c0,0-5.09,4.606,0,8h31.752"/>
<path fill="#010101" d="M33.532,65.791H1.782c0,0-1.94,5.399,3.151,9.209h28.602"/>
<path fill="#010101" d="M32.456,26.769c0,0,29.812-0.486,31.753,22.541H32.456"/>
<path fill="#010101" d="M32.994,53.429h31.752c0,0,5.091,4.606,0,8.001H32.994"/>
<path fill="#010101" d="M32.456,65.791h31.753c0,0,1.937,5.399-3.154,9.209H32.456"/>
</svg>
