<?xml version="1.0" encoding="utf-8"?>
<!-- Generator: Adobe Illustrator 16.0.4, SVG Export Plug-In . SVG Version: 6.00 Build 0)  -->
<!DOCTYPE svg PUBLIC "-//W3C//DTD SVG 1.1//EN" "http://www.w3.org/Graphics/SVG/1.1/DTD/svg11.dtd">
<svg version="1.1" id="Layer_1" xmlns="http://www.w3.org/2000/svg" xmlns:xlink="http://www.w3.org/1999/xlink" x="0px" y="0px"
	 width="67.009px" height="48.232px" viewBox="0 26.768 67.009 48.232" enable-background="new 0 26.768 67.009 48.232"
	 xml:space="preserve">
<path fill="#010101" d="M33.534,26.769c0,0-29.812-0.486-31.752,22.542h31.752"/>
<path fill="#010101" d="M34.072,53.43H2.32c0,0-5.09,4.605,0,8h31.752"/>
<path fill="#010101" d="M33.532,65.791H1.782c0,0-1.94,5.398,3.151,9.209h28.602"/>
<path fill="#010101" d="M32.456,26.769c0,0,29.812-0.486,31.753,22.542H32.456"/>
<path fill="#010101" d="M32.994,53.43h31.752c0,0,5.091,4.605,0,8H32.994"/>
<path fill="#010101" d="M32.456,65.791h31.753c0,0,1.938,5.398-3.154,9.209H32.456"/>
</svg>
