<?xml version="1.0" encoding="utf-8"?>
<!-- Generator: Adobe Illustrator 16.0.4, SVG Export Plug-In . SVG Version: 6.00 Build 0)  -->
<!DOCTYPE svg PUBLIC "-//W3C//DTD SVG 1.1//EN" "http://www.w3.org/Graphics/SVG/1.1/DTD/svg11.dtd">
<svg version="1.1" id="Layer_1" xmlns="http://www.w3.org/2000/svg" xmlns:xlink="http://www.w3.org/1999/xlink" x="0px" y="0px"
	 width="300px" height="175px" viewBox="0 0 300 175" enable-background="new 0 0 300 175" xml:space="preserve">
<g id="NIAsTX_1_">
	<g>
		<g>
			<path fill="#FFFFFF" d="M7.227,171.516c0-56.406,0-112.813,0-169.256c95.865,0,191.747,0,287.713,0c0,56.395,0,112.823,0,169.256
				C199.078,171.516,103.16,171.516,7.227,171.516z M265.05,80.674c-83.667,11.333-167.014,22.623-250.353,33.908
				c-2.255,18.858-4.482,37.461-6.751,56.436c84.336-25.331,168.032-50.47,252.208-75.754c-0.656,4.8-1.267,9.279-1.956,14.301
				c12.384-8.979,24.121-17.503,36.08-26.183c-9.471-5.371-18.704-10.606-28.286-16.042
				C265.658,72.047,265.358,76.272,265.05,80.674z M72.853,46.901c1.222-0.932,2.077-1.818,3.212-2.4
				c3.396-1.731,5.774-4.033,7.342-6.824c2.547-4.531,2.718-9.253,2.362-14.095c-0.554-7.516-7.813-14.474-18.713-15.492
				c-5.476-0.51-10.985-0.858-16.488-1.227c-8.5-0.572-17.003-1.108-25.505-1.647c-3.039-0.191-4.12,0.39-4.217,2.186
				c-0.276,4.968-0.545,9.936-0.844,14.903c-1.47,24.475-2.95,48.95-4.433,73.426c-0.132,2.197,1.112,3.01,4.025,2.526
				c3.651-0.604,7.302-1.2,10.928-1.873c12.284-2.267,24.602-4.451,36.816-6.912c4.29-0.862,7.662-3.145,10.386-5.743
				c8.692-8.285,9.923-17.796,7.57-27.743c-0.756-3.208-2.865-6.098-7.028-7.696C76.748,47.707,75.007,47.439,72.853,46.901z
				 M125.34,80.479c4.881-0.817,9.358-1.644,13.886-2.289c2.292-0.326,2.899-1.159,2.618-2.783
				c-1.086-6.25-2.046-12.506-3.101-18.76c-2.405-14.246-4.873-28.486-7.214-42.739c-0.234-1.437-0.908-2.007-2.81-2.102
				c-4.783-0.234-9.557-0.582-14.333-0.879c-5.804-0.359-5.933-0.376-7.215,3.859c-2.165,7.147-4.189,14.317-6.199,21.489
				c-2.173,7.762-4.236,15.54-6.391,23.302c-2.305,8.307-4.682,16.602-6.979,24.91c-0.546,1.972,0.021,2.328,2.618,1.893
				c5.311-0.888,10.61-1.832,15.943-2.636c1.658-0.25,2.342-0.845,2.579-2.013c0.437-2.158,0.983-4.303,1.453-6.457
				c0.712-3.251,0.698-3.268,5.118-3.839c2.749-0.354,5.505-0.656,8.334-0.989C124.236,73.973,124.772,77.125,125.34,80.479z
				 M160.354,60.934c-0.062-1.065-0.162-1.772-0.138-2.478c0.486-13.646,1.02-27.291,1.477-40.939
				c0.12-3.707,1.198-3.491-4.671-3.877c-3.03-0.198-6.065-0.351-9.409-0.545c-0.84,21.5-1.663,42.595-2.483,63.653
				c0.877,0.104,1.131,0.188,1.345,0.152c8.649-1.443,17.302-2.862,25.917-4.407c0.681-0.119,1.468-1.072,1.543-1.683
				c0.25-2.049,0.218-4.121,0.256-6.182c0.026-1.672,0.005-3.341,0.005-5.209C169.558,59.93,165.175,60.407,160.354,60.934z
				 M219.521,34.429c0.29-0.003,0.584-0.008,0.879-0.009c0.764,9.792,1.531,19.588,2.319,29.641
				c2.103-0.365,3.723-0.643,5.439-0.938c1.26-10.06,2.504-19.955,3.747-29.853c0.074,0.012,0.146,0.024,0.218,0.036
				c0,9.66,0,19.323,0,29.109c0.738-0.095,1.518-0.245,2.306-0.287c2.937-0.148,3.938-1.145,3.959-3.474
				c0.123-12.49,0.525-24.98,0.827-37.469c0.019-0.705,0.004-1.405,0.004-2.294c-3.492-0.211-6.662-0.402-9.942-0.603
				c-1.007,8.706-1.972,17.062-2.941,25.418c-0.21-0.004-0.424-0.009-0.637-0.016c-0.485-8.53-0.969-17.061-1.464-25.741
				c-4.173-0.27-7.992-0.515-12.038-0.776c-0.476,16.417-0.937,32.446-1.409,48.856c2.062-0.325,3.674-0.676,5.319-0.812
				c2.256-0.184,2.841-1.044,2.857-2.67c0.09-7.821,0.355-15.642,0.547-23.463C219.553,37.534,219.521,35.982,219.521,34.429z
				 M171.601,28.038c1.598,0,3.128,0.096,4.628-0.019c2.77-0.208,3.454,0.719,3.377,2.663c-0.522,12.911-0.934,25.822-1.354,38.732
				c-0.018,0.617,0.185,1.239,0.314,2.069c2.699-0.438,5.042-0.955,7.43-1.176c2.729-0.254,3.525-1.203,3.562-3.243
				c0.242-12.187,0.711-24.371,1.033-36.557c0.044-1.665,0.694-2.512,3.118-2.309c1.313,0.113,2.668,0.022,4.278,0.022
				c0-4.161,0-7.994,0-11.958c-8.792-0.555-17.395-1.101-26.388-1.667C171.601,19.224,171.601,23.481,171.601,28.038z
				 M240.427,40.372c0.151,0.007,0.307,0.017,0.455,0.028c0,3.636-0.187,7.276,0.069,10.904c0.166,2.332,0.677,4.71,1.606,6.938
				c1.032,2.481,4.194,3.162,7.326,2.019c3.391-1.236,4.595-3.526,5.099-6.031c1.936-9.695,1.919-19.442,0.782-29.182
				c-0.18-1.561-1.021-3.22-2.167-4.543c-2.248-2.605-7.149-2.509-9.363,0.097c-0.891,1.049-1.654,2.301-1.827,3.515
				C241.624,29.524,241.069,34.951,240.427,40.372z M197.95,68.18c2.605-0.411,4.688-0.847,6.822-1.045
				c2.294-0.215,2.804-1.114,2.843-2.704c0.375-15.208,0.853-30.417,1.285-45.626c0.021-0.574-0.106-1.149-0.181-1.859
				c-3.11-0.186-5.974-0.352-9.156-0.542C199.026,33.746,198.494,50.781,197.95,68.18z M270.154,56.067
				c0-3.081,0.034-5.908-0.012-8.735c-0.046-2.996,0.613-6.087-1.944-8.605c0.572-0.852,1.255-1.512,1.478-2.247
				c1.335-4.36,1.534-8.761-0.018-13.098c-0.352-0.977-1.537-2.27-2.678-2.511c-2.582-0.544-5.382-0.524-8.618-0.777
				c0,12.811,0,25.304,0,37.957c1.356-0.226,2.821-0.468,4.934-0.819c0-4.879,0-9.701,0-14.523c0.499-0.01,0.994-0.02,1.495-0.027
				c2.078,4.489-0.519,9.372,1.2,14.084C267.561,56.499,269.018,56.256,270.154,56.067z M281.259,47.058
				c-1.564,0.102-2.979,0.196-4.529,0.296c0-2.019,0-3.909,0-5.884c1.467-0.194,2.716-0.363,4.213-0.558c0-2.292,0-4.544,0-6.849
				c-1.401-0.073-2.65-0.137-3.862-0.2c0-1.796,0-3.392,0-4.994c1.65-0.075,3.062-0.139,4.545-0.207c0-2.433,0-4.648,0-7.054
				c-2.967-0.173-5.809-0.342-9.082-0.534c0,11.698,0,23.059,0,34.612c2.868-0.485,5.754-0.972,8.716-1.472
				C281.259,51.74,281.259,49.46,281.259,47.058z"/>
			<path fill="#020202" d="M265.05,80.674c0.309-4.404,0.608-8.627,0.943-13.336c9.583,5.436,18.814,10.675,28.286,16.043
				c-11.959,8.681-23.702,17.199-36.08,26.183c0.688-5.021,1.303-9.503,1.956-14.3C175.979,120.55,92.283,145.687,7.947,171.019
				c2.269-18.975,4.494-37.578,6.751-56.435C98.036,103.297,181.383,92.007,265.05,80.674z"/>
			<path fill="#020202" d="M72.853,46.901c2.154,0.539,3.895,0.806,5.418,1.39c4.163,1.597,6.269,4.485,7.025,7.696
				c2.354,9.947,1.122,19.456-7.57,27.743c-2.728,2.601-6.1,4.883-10.386,5.744c-12.214,2.461-24.531,4.646-36.815,6.912
				c-3.627,0.673-7.281,1.27-10.928,1.873c-2.914,0.483-4.158-0.325-4.026-2.526c1.483-24.475,2.964-48.952,4.434-73.424
				c0.299-4.967,0.568-9.935,0.844-14.904c0.098-1.795,1.179-2.377,4.219-2.186c8.5,0.541,17.007,1.075,25.505,1.646
				c5.499,0.371,11.01,0.717,16.489,1.228c10.898,1.018,18.16,7.976,18.711,15.492c0.357,4.842,0.185,9.564-2.362,14.095
				c-1.567,2.792-3.946,5.093-7.342,6.824C74.93,45.083,74.075,45.972,72.853,46.901z M48.104,65.952c-0.126,0-0.254,0-0.379,0
				c-0.155,2.601-0.337,5.203-0.451,7.805c-0.058,1.253,0.357,2.42,2.434,2.39c3.675-0.056,6.718-1.145,8.848-3.457
				c3.221-3.495,3.099-7.458,2.524-11.382c-0.557-3.799-3.17-6.8-9.812-5.756c-2.071,0.325-3.221,0.916-3.178,2.594
				C48.151,60.745,48.104,63.35,48.104,65.952z M49.81,32.375c-0.084,0-0.165,0-0.249,0c-0.123,1.933-0.427,3.872-0.278,5.794
				c0.059,0.78,0.969,2.07,1.735,2.181c2.621,0.372,5.353,0.318,7.344-1.434c3.471-3.052,4.184-6.529,2.911-10.331
				c-1.117-3.323-3.597-4.727-8.162-4.639c-2.178,0.042-3.31,0.788-3.301,2.445C49.817,28.387,49.81,30.379,49.81,32.375z"/>
			<path fill="#020202" d="M125.34,80.479c-0.568-3.354-1.104-6.504-1.698-10.034c-2.825,0.335-5.586,0.64-8.334,0.99
				c-4.42,0.571-4.405,0.588-5.117,3.839c-0.472,2.153-1.019,4.298-1.453,6.457c-0.236,1.164-0.92,1.764-2.578,2.013
				c-5.334,0.802-10.632,1.748-15.943,2.636c-2.599,0.435-3.165,0.079-2.618-1.893c2.296-8.309,4.674-16.603,6.979-24.909
				c2.153-7.764,4.217-15.542,6.39-23.303c2.011-7.172,4.035-14.341,6.199-21.489c1.283-4.235,1.412-4.217,7.216-3.859
				c4.78,0.296,9.553,0.646,14.333,0.88c1.901,0.093,2.575,0.666,2.81,2.102c2.342,14.252,4.811,28.491,7.214,42.738
				c1.055,6.251,2.016,12.51,3.102,18.76c0.281,1.625-0.326,2.456-2.618,2.783C134.698,78.833,130.221,79.661,125.34,80.479z
				 M119.631,29.349c-0.336,0-0.672,0-1.011,0c-1.644,8.724-3.285,17.444-4.994,26.497c2.393-0.155,4.146-0.355,5.899-0.369
				c2.214-0.018,2.948-0.708,2.779-2.367c-0.74-7.306-1.341-14.622-2.034-21.931C120.212,30.561,119.853,29.957,119.631,29.349z"/>
			<path fill="#020202" d="M160.354,60.934c4.821-0.527,9.204-1.008,13.839-1.514c0,1.867,0.025,3.54-0.005,5.208
				c-0.037,2.061-0.006,4.133-0.258,6.183c-0.07,0.61-0.858,1.563-1.537,1.684c-8.614,1.542-17.271,2.965-25.919,4.406
				c-0.214,0.037-0.467-0.047-1.345-0.151c0.818-21.058,1.639-42.155,2.481-63.655c3.347,0.193,6.38,0.349,9.405,0.545
				c5.877,0.387,4.798,0.17,4.675,3.879c-0.456,13.646-0.989,27.292-1.477,40.939C160.191,59.162,160.284,59.869,160.354,60.934z"/>
			<path fill="#020202" d="M219.521,34.429c0,1.553,0.032,3.105-0.006,4.658c-0.188,7.821-0.452,15.642-0.544,23.463
				c-0.018,1.625-0.603,2.485-2.863,2.671c-1.641,0.137-3.258,0.484-5.317,0.81c0.472-16.41,0.932-32.438,1.41-48.856
				c4.049,0.262,7.866,0.509,12.035,0.777c0.497,8.68,0.979,17.208,1.471,25.741c0.208,0.004,0.423,0.009,0.636,0.016
				c0.964-8.358,1.932-16.713,2.943-25.418c3.278,0.2,6.444,0.391,9.938,0.603c0,0.886,0.015,1.589-0.003,2.293
				c-0.305,12.49-0.707,24.979-0.824,37.47c-0.023,2.329-1.026,3.326-3.967,3.474c-0.787,0.042-1.563,0.192-2.303,0.287
				c0-9.786,0-19.45,0-29.109c-0.067-0.013-0.142-0.024-0.213-0.037c-1.243,9.897-2.489,19.793-3.748,29.854
				c-1.724,0.294-3.343,0.573-5.446,0.938c-0.788-10.053-1.554-19.849-2.314-29.642C220.104,34.42,219.811,34.423,219.521,34.429z"
				/>
			<path fill="#020202" d="M171.601,28.038c0-4.556,0-8.814,0-13.444c8.992,0.566,17.596,1.111,26.386,1.667
				c0,3.967,0,7.797,0,11.957c-1.609,0-2.957,0.093-4.277-0.02c-2.423-0.205-3.074,0.644-3.117,2.308
				c-0.322,12.185-0.793,24.37-1.034,36.557c-0.04,2.042-0.834,2.989-3.562,3.243c-2.388,0.22-4.73,0.737-7.431,1.176
				c-0.132-0.829-0.331-1.451-0.313-2.069c0.422-12.912,0.83-25.824,1.354-38.731c0.077-1.943-0.608-2.872-3.377-2.664
				C174.729,28.129,173.198,28.038,171.601,28.038z"/>
			<path fill="#020202" d="M240.427,40.372c0.641-5.42,1.19-10.848,1.98-16.258c0.179-1.211,0.94-2.465,1.827-3.513
				c2.217-2.604,7.122-2.699,9.369-0.098c1.146,1.323,1.981,2.984,2.164,4.545c1.137,9.74,1.156,19.485-0.785,29.182
				c-0.498,2.504-1.706,4.794-5.099,6.03c-3.126,1.141-6.29,0.462-7.322-2.019c-0.934-2.226-1.439-4.605-1.608-6.938
				c-0.258-3.627-0.065-7.269-0.065-10.904C240.733,40.391,240.578,40.381,240.427,40.372z M249.233,25.983
				c-2.312,2.193-2.837,25.176-0.739,27.086C251.052,51.441,251.783,28.355,249.233,25.983z"/>
			<path fill="#020202" d="M197.95,68.18c0.544-17.398,1.07-34.438,1.614-51.779c3.181,0.187,6.045,0.356,9.156,0.541
				c0.072,0.71,0.201,1.288,0.187,1.86c-0.434,15.21-0.912,30.418-1.292,45.626c-0.038,1.59-0.55,2.491-2.844,2.704
				C202.646,67.333,200.556,67.772,197.95,68.18z"/>
			<path fill="#020202" d="M270.154,56.067c-1.137,0.189-2.588,0.435-4.159,0.698c-1.719-4.712,0.878-9.595-1.203-14.084
				c-0.495,0.007-0.99,0.018-1.495,0.027c0,4.822,0,9.644,0,14.523c-2.106,0.351-3.577,0.594-4.928,0.819
				c0-12.652,0-25.148,0-37.957c3.238,0.251,6.034,0.232,8.613,0.777c1.143,0.241,2.325,1.536,2.677,2.511
				c1.556,4.337,1.354,8.74,0.023,13.099c-0.229,0.734-0.909,1.394-1.484,2.246c2.561,2.52,1.905,5.611,1.952,8.605
				C270.185,50.157,270.154,52.983,270.154,56.067z M263.672,35.946c3.056-1.878,2.167-4.334,2.095-6.621
				c-0.02-0.568-0.815-1.121-1.256-1.681c-0.281,0.087-0.56,0.175-0.839,0.263C263.672,30.588,263.672,33.264,263.672,35.946z"/>
			<path fill="#020202" d="M281.259,47.058c0,2.401,0,4.682,0,7.164c-2.962,0.5-5.848,0.986-8.716,1.471c0-11.557,0-22.915,0-34.612
				c3.273,0.193,6.115,0.359,9.082,0.533c0,2.406,0,4.621,0,7.055c-1.482,0.066-2.895,0.131-4.545,0.206c0,1.601,0,3.198,0,4.994
				c1.213,0.063,2.462,0.127,3.862,0.2c0,2.305,0,4.557,0,6.849c-1.497,0.194-2.746,0.364-4.213,0.558c0,1.975,0,3.863,0,5.886
				C278.272,47.253,279.691,47.159,281.259,47.058z"/>
			<path fill="#FFFFFF" d="M48.104,65.952c0-2.602,0.047-5.207-0.017-7.805c-0.043-1.677,1.106-2.27,3.179-2.594
				c6.642-1.045,9.254,1.956,9.812,5.756c0.575,3.924,0.696,7.887-2.524,11.384c-2.13,2.311-5.172,3.4-8.848,3.456
				c-2.076,0.03-2.49-1.14-2.435-2.391c0.115-2.603,0.297-5.204,0.452-7.804C47.85,65.952,47.976,65.952,48.104,65.952z"/>
			<path fill="#FFFFFF" d="M49.81,32.375c0-1.996,0.008-3.988-0.002-5.983c-0.01-1.657,1.123-2.406,3.299-2.445
				c4.569-0.087,7.045,1.317,8.161,4.639c1.277,3.802,0.563,7.279-2.909,10.331c-1.992,1.751-4.723,1.805-7.344,1.434
				c-0.766-0.111-1.675-1.399-1.735-2.181c-0.149-1.922,0.156-3.861,0.28-5.794C49.642,32.375,49.725,32.375,49.81,32.375z"/>
			<path fill="#FFFFFF" d="M119.631,29.349c0.222,0.609,0.581,1.211,0.638,1.83c0.69,7.309,1.294,14.625,2.034,21.931
				c0.169,1.661-0.564,2.35-2.779,2.367c-1.752,0.013-3.507,0.211-5.899,0.369c1.709-9.052,3.351-17.772,4.994-26.497
				C118.959,29.349,119.295,29.349,119.631,29.349z"/>
			<path fill="#FFFFFF" d="M249.233,25.983c2.554,2.37,1.818,25.458-0.739,27.086C246.396,51.161,246.917,28.177,249.233,25.983z"/>
			<path fill="#FFFFFF" d="M263.672,35.946c0-2.682,0-5.358,0-8.039c0.28-0.089,0.562-0.175,0.839-0.263
				c0.44,0.56,1.236,1.113,1.256,1.681C265.839,31.612,266.728,34.067,263.672,35.946z"/>
		</g>
	</g>
</g>
</svg>
